<svg viewBox="677.493644 209 383.506356 356.53240900000003" width="383.506356" height="356.53240900000003" fill="#56F09F"><path d=" M697.493644 371.862976 L766.896719 371.862976 C766.896719 371.862976, 776.896719 371.862976, 776.896719 361.862976 L776.896719 309.25 C776.896719 309.25, 776.896719 299.25, 786.896719 299.25 L931 299.25 C931 299.25, 941 299.25, 941 289.25 L941 229 C941 229, 941 219, 951 219 L1041 219 C1041 219, 1051 219, 1051 229 L1051 319 C1051 319, 1051 329, 1041 329 L982.8329389999999 329 C982.8329389999999 329, 972.8329389999999 329, 972.8329389999999 339 L972.8329389999999 408.450767 C972.8329389999999 408.450767, 972.8329389999999 418.450767, 962.8329389999999 418.450767 L795.734883 418.450767 C795.734883 418.450767, 785.734883 418.450767, 785.734883 428.450767 L785.734883 430.056327 C785.734883 430.056327, 785.734883 440.056327, 795.734883 440.056327 L1038.820847 440.056327 C1038.820847 440.056327, 1048.820847 440.056327, 1048.820847 450.056327 L1048.820847 498.59682200000003 C1048.820847 498.59682200000003, 1048.820847 508.59682200000003, 1038.820847 508.59682200000003 L907.584969 508.59682200000003 C907.584969 508.59682200000003, 897.584969 508.59682200000003, 897.584969 518.596822 L897.584969 545.532409 C897.584969 545.532409, 897.584969 555.532409, 887.584969 555.532409 L697.493644 555.532409 C697.493644 555.532409, 687.493644 555.532409, 687.493644 545.532409 L687.493644 500.717033 C687.493644 500.717033, 687.493644 490.717033, 697.493644 490.717033 L771.36308 490.717033 C771.36308 490.717033, 781.36308 490.717033, 781.36308 480.717033 L781.36308 454.47617 C781.36308 454.47617, 781.36308 444.47617, 771.36308 444.47617 L697.493644 444.47617 C697.493644 444.47617, 687.493644 444.47617, 687.493644 434.47617 L687.493644 381.862976 C687.493644 381.862976, 687.493644 371.862976, 697.493644 371.862976"></path></svg>